<svg xmlns="http://www.w3.org/2000/svg" version="1.1" xmlns:xlink="http://www.w3.org/1999/xlink" width="32" height="32"><svg xmlns="http://www.w3.org/2000/svg" viewBox="0 0 32 32" width="32" height="32">
  <!-- Background circle -->
  <circle cx="16" cy="16" r="15" fill="url(#gradient)" stroke="#fff" stroke-width="1"></circle>
  
  <!-- Bear ear left -->
  <circle cx="9" cy="9" r="4" fill="#8B4513"></circle>
  <circle cx="9" cy="9" r="2.5" fill="#D2691E"></circle>
  
  <!-- Bear ear right -->
  <circle cx="23" cy="9" r="4" fill="#8B4513"></circle>
  <circle cx="23" cy="9" r="2.5" fill="#D2691E"></circle>
  
  <!-- Bear face -->
  <ellipse cx="16" cy="17" rx="10" ry="9" fill="#A0522D"></ellipse>
  
  <!-- Bear snout -->
  <ellipse cx="16" cy="20" rx="5" ry="4" fill="#D2691E"></ellipse>
  
  <!-- Nose -->
  <ellipse cx="16" cy="19" rx="2" ry="1.5" fill="#000"></ellipse>
  
  <!-- Eyes -->
  <circle cx="12" cy="15" r="1.5" fill="#000"></circle>
  <circle cx="20" cy="15" r="1.5" fill="#000"></circle>
  <circle cx="12.5" cy="14.5" r="0.5" fill="#fff"></circle>
  <circle cx="20.5" cy="14.5" r="0.5" fill="#fff"></circle>
  
  <!-- Speech bubble -->
  <ellipse cx="24" cy="22" rx="5" ry="3.5" fill="#fff" stroke="#4A90E2" stroke-width="1"></ellipse>
  <path d="M 21 24 L 19 26 L 21.5 25" fill="#fff" stroke="#4A90E2" stroke-width="1" stroke-linejoin="round"></path>
  
  <!-- Search dots in speech bubble -->
  <circle cx="22" cy="22" r="0.8" fill="#4A90E2"></circle>
  <circle cx="24" cy="22" r="0.8" fill="#4A90E2"></circle>
  <circle cx="26" cy="22" r="0.8" fill="#4A90E2"></circle>
  
  <!-- Gradient definition -->
  <defs>
    <linearGradient id="SvgjsLinearGradient1006" x1="0%" y1="0%" x2="100%" y2="100%">
      <stop offset="0%" style="stop-color:#60A5FA;stop-opacity:1"></stop>
      <stop offset="100%" style="stop-color:#A78BFA;stop-opacity:1"></stop>
    </linearGradient>
  </defs>
</svg><style>@media (prefers-color-scheme: light) { :root { filter: none; } }
@media (prefers-color-scheme: dark) { :root { filter: none; } }
</style></svg>